<?xml version="1.0" standalone="no"?> <!DOCTYPE svg PUBLIC "-//W3C//DTD SVG 20010904//EN" "http://www.w3.org/TR/2001/REC-SVG-20010904/DTD/svg10.dtd"> <svg version="1.0" xmlns="http://www.w3.org/2000/svg" width="512.000000pt" height="512.000000pt" viewBox="0 0 512.000000 512.000000" preserveAspectRatio="xMidYMid meet"> <g transform="translate(0.000000,512.000000) scale(0.050000,-0.050000)" fill="#326bbd" stroke="none"> <path d="M3880 9599 c-2298 -318 -3659 -2638 -2798 -4768 807 -1994 3245 -2779 5069 -1632 l196 123 1342 -1341 1342 -1341 284 285 285 285 -1320 1320 c-726 726 -1320 1330 -1320 1342 0 12 46 83 102 157 1253 1655 817 3982 -952 5084 -620 387 -1525 584 -2230 486z m870 -422 c2474 -370 3488 -3382 1742 -5174 -1673 -1717 -4599 -921 -5170 1407 -518 2114 1279 4089 3428 3767z"/> </g> </svg>